<svg id="Calque_8_-_copie_8" data-name="Calque 8 - copie 8" xmlns="http://www.w3.org/2000/svg" viewBox="0 0 233.84 233.84"><defs><style>.cls-1,.cls-3{fill:#fdc286;}.cls-1,.cls-3,.cls-4,.cls-5,.cls-7,.cls-8{stroke:#000;stroke-miterlimit:10;}.cls-1,.cls-7{stroke-width:8px;}.cls-2{opacity:0.15;}.cls-3,.cls-4,.cls-5{stroke-linecap:round;}.cls-3{stroke-width:5px;}.cls-4,.cls-5,.cls-7,.cls-8{fill:none;}.cls-4,.cls-5,.cls-8{stroke-width:6px;}.cls-5{opacity:0.32;}.cls-6{fill:#fff;opacity:0.23;}.cls-9{opacity:0.48;}</style></defs><path class="cls-1" d="M509.28,790H427.21A72.85,72.85,0,0,1,413,788.61a71.92,71.92,0,0,1-57.7-70.49V636.05a71.89,71.89,0,0,1,71.88-71.89h82.07a71.89,71.89,0,0,1,71.89,71.89v82.07A71.89,71.89,0,0,1,509.28,790Z" transform="translate(-351.33 -560.16)"/><path class="cls-2" d="M412.13,786c71.27,5.65,154.68-25.27,165.2-109,2.51-19.94,3.84,41,3.84,41l-5,26.5-13.45,21.64-17.42,14.11-24.45,8.71S340.86,780.39,412.13,786Z" transform="translate(-351.33 -560.16)"/><g id="Calque_9_-_copie" data-name="Calque 9 - copie"><path class="cls-3" d="M372.47,677.08" transform="translate(-351.33 -560.16)"/><path class="cls-4" d="M402,653.67A70.71,70.71,0,1,1,400.87,697" transform="translate(-351.33 -560.16)"/><path class="cls-5" d="M403.77,654.87a70.73,70.73,0,1,1,1.59,51,69.73,69.73,0,0,1-2.71-7.59" transform="translate(-351.33 -560.16)"/><path class="cls-3" d="M370.12,641.17" transform="translate(-351.33 -560.16)"/><path class="cls-4" d="M409.15,715.17s22.72-23.93,59.42-23.93,59.8,23.93,59.8,23.93" transform="translate(-351.33 -560.16)"/></g><path class="cls-6" d="M360.78,649.15s-6.4-22.21,16.18-25.41,112.57-81.55,201.42-7.36c5.07-10-4.7-17.15-4.7-17.15l-32.77-29.44-38.15-6.25H415l-21.6,9.73-22.49,20.54-9.34,22.57" transform="translate(-351.33 -560.16)"/><path class="cls-7" d="M509.28,790H427.21A72.85,72.85,0,0,1,413,788.61a71.92,71.92,0,0,1-57.7-70.49V636.05a71.89,71.89,0,0,1,71.88-71.89h82.07a71.89,71.89,0,0,1,71.89,71.89v82.07A71.89,71.89,0,0,1,509.28,790Z" transform="translate(-351.33 -560.16)"/><circle class="cls-8" cx="117.43" cy="101.94" r="26.35"/><path d="M419.7,677c0,.13-.05.26-.09.39a2.26,2.26,0,0,1-1.79,1.61l-3.28.65a.26.26,0,0,0-.2.18c-.16.39-.32.79-.49,1.18a.25.25,0,0,0,0,.26l1.83,2.74a2.27,2.27,0,0,1-.28,3l-2.09,2.09a2.26,2.26,0,0,1-3,.29l-2.75-1.84a.25.25,0,0,0-.3,0l-1.17.49a.2.2,0,0,0-.16.19c-.23,1.15-.45,2.29-.7,3.44a2.22,2.22,0,0,1-2.15,1.71H400a2.27,2.27,0,0,1-2.25-1.88c-.21-1.09-.44-2.19-.66-3.29a.28.28,0,0,0-.14-.16c-.41-.18-.82-.36-1.24-.52a.32.32,0,0,0-.23,0c-.93.61-1.85,1.24-2.79,1.85a2.21,2.21,0,0,1-2.52,0,2.18,2.18,0,0,1-.41-.34l-2.07-2.06a2.27,2.27,0,0,1-.3-3l1.8-2.69a.3.3,0,0,0,0-.34c-.17-.38-.33-.77-.48-1.15a.24.24,0,0,0-.19-.17c-1.15-.22-2.3-.44-3.44-.69a2.25,2.25,0,0,1-1.72-2.17v-3a2.31,2.31,0,0,1,2-2.39c1.06-.19,2.11-.41,3.17-.63a.25.25,0,0,0,.14-.13q.27-.61.51-1.23a.32.32,0,0,0,0-.25l-1.81-2.72a2.27,2.27,0,0,1,.31-3.05l2-2a2.24,2.24,0,0,1,3-.31l2.77,1.84a.26.26,0,0,0,.3,0c.38-.17.77-.32,1.16-.48a.23.23,0,0,0,.18-.2c.22-1.14.44-2.28.69-3.42A2.22,2.22,0,0,1,400,657.1h3.13a2.26,2.26,0,0,1,2.24,1.88c.21,1.09.44,2.18.65,3.27a.21.21,0,0,0,.17.19c.39.16.79.32,1.17.49a.26.26,0,0,0,.3,0l2.73-1.81a2.25,2.25,0,0,1,3,.3l2,2a2.26,2.26,0,0,1,.3,3l-1.81,2.71a.27.27,0,0,0,0,.32c.17.38.33.76.48,1.15a.25.25,0,0,0,.21.18c1.14.22,2.28.44,3.41.69a2.22,2.22,0,0,1,1.7,1.84.32.32,0,0,0,0,.09Zm-5.84,8.34-.11-.18c-.61-.91-1.22-1.82-1.82-2.74a2.24,2.24,0,0,1-.19-2.25c.19-.43.37-.87.55-1.31a2.16,2.16,0,0,1,1.59-1.38c1.13-.25,2.27-.47,3.4-.69.13,0,.15-.08.15-.19v-2.79s0-.09,0-.14l-3.35-.67a2.29,2.29,0,0,1-1.81-1.49c-.16-.39-.31-.79-.49-1.17A2.3,2.3,0,0,1,412,668l.91-1.37,1-1.48L411.66,663l-.15.1-2.69,1.8a2.29,2.29,0,0,1-2.3.21l-1.31-.55a2.16,2.16,0,0,1-1.39-1.61c-.15-.66-.27-1.32-.41-2-.1-.51-.2-1-.31-1.53H400c-.22,1.08-.45,2.15-.64,3.22a2.37,2.37,0,0,1-1.6,2c-.38.14-.75.3-1.12.47a2.27,2.27,0,0,1-2.34-.19l-2.5-1.67-.35-.22-2.19,2.19.1.15,1.8,2.69a2.28,2.28,0,0,1,.18,2.36c-.18.39-.34.8-.5,1.2a2.21,2.21,0,0,1-1.65,1.44c-.78.17-1.57.32-2.35.47l-1.15.24s0,.07,0,.09v2.85c0,.13.05.15.16.17,1,.2,2.05.42,3.08.61a2.39,2.39,0,0,1,2,1.65c.13.36.28.71.44,1a2.28,2.28,0,0,1-.17,2.37l-.76,1.14-1.15,1.72,2.19,2.18.15-.09,2.75-1.84a2.23,2.23,0,0,1,2.19-.2l1.4.58a2.18,2.18,0,0,1,1.35,1.59c.18.78.32,1.57.48,2.35l.24,1.19h3.08a.24.24,0,0,1,0-.08c.21-1,.44-2.08.62-3.13a2.41,2.41,0,0,1,1.71-2,9.08,9.08,0,0,0,1-.41,2.31,2.31,0,0,1,2.41.19l2.71,1.8.14.08Z" transform="translate(-351.33 -560.16)"/><g class="cls-9"><path d="M420.79,677.73c0,.13-.05.27-.09.39a2.24,2.24,0,0,1-1.79,1.61l-3.28.66a.24.24,0,0,0-.2.17c-.16.4-.32.79-.49,1.18a.27.27,0,0,0,0,.27l1.83,2.73a2.27,2.27,0,0,1-.28,3l-2.09,2.1a2.27,2.27,0,0,1-3,.28l-2.75-1.84a.27.27,0,0,0-.3,0l-1.17.49a.22.22,0,0,0-.16.19c-.23,1.15-.45,2.3-.7,3.44a2.21,2.21,0,0,1-2.15,1.71h-3.12a2.27,2.27,0,0,1-2.25-1.88c-.21-1.1-.44-2.2-.66-3.3a.31.31,0,0,0-.14-.16l-1.24-.52a.32.32,0,0,0-.23,0c-.93.62-1.85,1.24-2.79,1.85a2.26,2.26,0,0,1-2.93-.3l-2.07-2.06a2.27,2.27,0,0,1-.3-3l1.8-2.69a.29.29,0,0,0,0-.33c-.17-.38-.33-.77-.48-1.16a.22.22,0,0,0-.19-.16c-1.15-.23-2.3-.45-3.44-.7a2.24,2.24,0,0,1-1.72-2.16v-3a2.3,2.3,0,0,1,2-2.39c1.06-.19,2.11-.42,3.17-.64a.22.22,0,0,0,.14-.13q.27-.61.51-1.23a.29.29,0,0,0,0-.24c-.6-.91-1.2-1.82-1.81-2.73a2.27,2.27,0,0,1,.31-3l2-2a2.26,2.26,0,0,1,2.95-.31c.93.61,1.85,1.23,2.77,1.85a.27.27,0,0,0,.3,0c.38-.18.77-.33,1.16-.49a.22.22,0,0,0,.18-.2c.22-1.14.44-2.28.69-3.41a2.2,2.2,0,0,1,2.15-1.73h3.13a2.26,2.26,0,0,1,2.24,1.88c.21,1.09.44,2.19.65,3.28a.22.22,0,0,0,.17.19c.39.15.79.31,1.17.49a.27.27,0,0,0,.3,0l2.73-1.82a2.27,2.27,0,0,1,3,.3l2,2a2.28,2.28,0,0,1,.3,3l-1.81,2.7a.27.27,0,0,0,0,.32c.17.38.33.77.48,1.16a.24.24,0,0,0,.2.17c1.15.23,2.29.45,3.42.69a2.22,2.22,0,0,1,1.7,1.85s0,.05,0,.08ZM415,686.07c0-.06-.07-.12-.11-.17L413,683.16a2.24,2.24,0,0,1-.19-2.25c.19-.44.37-.88.55-1.31a2.17,2.17,0,0,1,1.59-1.39c1.13-.25,2.27-.47,3.4-.69.13,0,.15-.07.15-.18v-2.8s0-.08,0-.13l-3.35-.68a2.28,2.28,0,0,1-1.81-1.48c-.16-.4-.31-.8-.49-1.18a2.3,2.3,0,0,1,.18-2.37l.91-1.37,1-1.47-2.19-2.19-.15.09-2.69,1.8a2.27,2.27,0,0,1-2.3.21l-1.31-.54a2.16,2.16,0,0,1-1.39-1.61c-.15-.66-.27-1.33-.41-2s-.2-1-.31-1.54h-3.08c-.22,1.08-.45,2.15-.64,3.22a2.4,2.4,0,0,1-1.6,2,12,12,0,0,0-1.12.46,2.29,2.29,0,0,1-2.34-.18l-2.5-1.67-.35-.23-2.19,2.2.1.14,1.8,2.69a2.3,2.3,0,0,1,.18,2.37c-.18.39-.34.79-.5,1.19a2.2,2.2,0,0,1-1.65,1.44c-.78.17-1.57.32-2.35.48l-1.15.23c0,.05,0,.07,0,.1v2.85c0,.12,0,.15.16.17,1,.2,2.05.42,3.07.61a2.36,2.36,0,0,1,2,1.64c.13.36.28.71.44,1.06a2.26,2.26,0,0,1-.17,2.36l-.76,1.14-1.15,1.72,2.19,2.19.15-.1c.92-.61,1.83-1.23,2.75-1.83a2.23,2.23,0,0,1,2.19-.21l1.4.58a2.19,2.19,0,0,1,1.35,1.6c.18.78.32,1.56.48,2.35l.24,1.18h3.08a.14.14,0,0,1,0-.07c.21-1,.44-2.09.62-3.13a2.41,2.41,0,0,1,1.71-2c.33-.12.65-.26,1-.41a2.28,2.28,0,0,1,2.41.18l2.71,1.8.14.09Z" transform="translate(-351.33 -560.16)"/></g></svg>