<svg id="Calque_8_-_copie_6" data-name="Calque 8 - copie 6" xmlns="http://www.w3.org/2000/svg" viewBox="0 0 233.84 233.84"><defs><style>.cls-1,.cls-12,.cls-13{fill:#fbcea2;}.cls-1,.cls-10,.cls-11,.cls-12,.cls-13,.cls-4,.cls-5,.cls-6,.cls-7,.cls-8,.cls-9{stroke:#1d1d1b;stroke-miterlimit:10;}.cls-1,.cls-4{stroke-width:8px;}.cls-2{fill:#1d1d1b;opacity:0.15;}.cls-3{fill:#fff;opacity:0.23;}.cls-10,.cls-11,.cls-4,.cls-5,.cls-6,.cls-7,.cls-8,.cls-9{fill:none;}.cls-6,.cls-9{stroke-width:4px;}.cls-10,.cls-11,.cls-12,.cls-13,.cls-7,.cls-8{stroke-width:5px;}.cls-11,.cls-12,.cls-13,.cls-8{stroke-linecap:round;}.cls-10,.cls-11,.cls-13,.cls-9{opacity:0.58;}</style></defs><path class="cls-1" d="M507.64,785.85H425.57a72.85,72.85,0,0,1-14.18-1.39A71.91,71.91,0,0,1,353.69,714V631.9A71.89,71.89,0,0,1,425.57,560h82.07a71.89,71.89,0,0,1,71.89,71.89V714A71.89,71.89,0,0,1,507.64,785.85Z" transform="translate(-349.69 -556.01)"/><path class="cls-2" d="M410.49,781.89c71.27,5.65,154.68-25.27,165.2-109,2.5-19.94,3.84,41,3.84,41l-5,26.5L561,762.11l-17.42,14.11-24.45,8.71S339.22,776.24,410.49,781.89Z" transform="translate(-349.69 -556.01)"/><path class="cls-3" d="M359.14,645s-6.4-22.21,16.18-25.41S487.89,538,576.74,612.23c5.07-10-4.7-17.15-4.7-17.15l-32.77-29.44-38.15-6.25h-87.8l-21.6,9.73-22.49,20.54-9.34,22.57" transform="translate(-349.69 -556.01)"/><path class="cls-4" d="M507.64,785.85H425.57a72.85,72.85,0,0,1-14.18-1.39A71.91,71.91,0,0,1,353.69,714V631.9A71.89,71.89,0,0,1,425.57,560h82.07a71.89,71.89,0,0,1,71.89,71.89V714A71.89,71.89,0,0,1,507.64,785.85Z" transform="translate(-349.69 -556.01)"/><g id="Calque_26" data-name="Calque 26"><circle class="cls-5" cx="60.56" cy="55.47" r="3.66"/><path class="cls-5" d="M400.64,618.17s3.11-3,6.12-3h7.34c3.48,0,6.59,3,6.59,3" transform="translate(-349.69 -556.01)"/><circle class="cls-6" cx="60.56" cy="58.18" r="11.65"/><circle class="cls-5" cx="60.98" cy="88.5" r="3.66"/><path class="cls-5" d="M401.07,651.21s3.1-3,6.11-3h7.34c3.49,0,6.59,3,6.59,3" transform="translate(-349.69 -556.01)"/><circle class="cls-6" cx="60.98" cy="91.22" r="11.65"/><circle class="cls-5" cx="60.56" cy="121.54" r="3.66"/><path class="cls-5" d="M400.64,684.24s3.11-3,6.12-3h7.34c3.48,0,6.59,3,6.59,3" transform="translate(-349.69 -556.01)"/><circle class="cls-6" cx="60.56" cy="124.25" r="11.65"/><circle class="cls-5" cx="60.56" cy="154.57" r="3.66"/><path class="cls-5" d="M400.64,717.28s3.11-3,6.12-3h7.34c3.48,0,6.59,3,6.59,3" transform="translate(-349.69 -556.01)"/><circle class="cls-6" cx="60.56" cy="157.29" r="11.65"/><circle class="cls-7" cx="58.31" cy="192.01" r="1.66"/><circle class="cls-7" cx="72.21" cy="192.01" r="1.66"/><circle class="cls-7" cx="86.11" cy="192.01" r="1.66"/><path class="cls-8" d="M435.8,614.19" transform="translate(-349.69 -556.01)"/><circle class="cls-5" cx="60.98" cy="55.47" r="3.66"/><path class="cls-5" d="M401.07,618.17s3.1-3,6.11-3h7.34c3.49,0,6.59,3,6.59,3" transform="translate(-349.69 -556.01)"/><circle class="cls-6" cx="60.98" cy="58.18" r="11.65"/><circle class="cls-5" cx="61.4" cy="88.5" r="3.66"/><path class="cls-5" d="M401.49,651.21s3.1-3,6.12-3H415c3.48,0,6.59,3,6.59,3" transform="translate(-349.69 -556.01)"/><circle class="cls-6" cx="61.4" cy="91.22" r="11.65"/><circle class="cls-5" cx="60.98" cy="121.54" r="3.66"/><path class="cls-5" d="M401.07,684.24s3.1-3,6.11-3h7.34c3.49,0,6.59,3,6.59,3" transform="translate(-349.69 -556.01)"/><circle class="cls-6" cx="60.98" cy="124.25" r="11.65"/><circle class="cls-5" cx="60.98" cy="154.57" r="3.66"/><path class="cls-5" d="M401.07,717.28s3.1-3,6.11-3h7.34c3.49,0,6.59,3,6.59,3" transform="translate(-349.69 -556.01)"/><circle class="cls-6" cx="60.98" cy="157.29" r="11.65"/><circle class="cls-7" cx="58.73" cy="192.01" r="1.66"/><circle class="cls-7" cx="72.63" cy="192.01" r="1.66"/><circle class="cls-7" cx="86.54" cy="192.01" r="1.66"/><path class="cls-8" d="M436.22,614.19" transform="translate(-349.69 -556.01)"/><circle class="cls-9" cx="62.77" cy="59.62" r="11.65"/><circle class="cls-9" cx="63.19" cy="92.65" r="11.65"/><circle class="cls-9" cx="62.77" cy="125.69" r="11.65"/><circle class="cls-9" cx="62.77" cy="158.72" r="11.65"/><circle class="cls-10" cx="60.52" cy="193.45" r="1.66"/><circle class="cls-10" cx="74.42" cy="193.45" r="1.66"/><circle class="cls-10" cx="88.32" cy="193.45" r="1.66"/><path class="cls-11" d="M438,615.63" transform="translate(-349.69 -556.01)"/></g><line class="cls-12" x1="94.68" y1="59.12" x2="177.13" y2="59.12"/><line class="cls-12" x1="94.68" y1="92.16" x2="177.13" y2="92.16"/><line class="cls-12" x1="94.68" y1="126.71" x2="177.13" y2="126.71"/><line class="cls-12" x1="94.68" y1="159.75" x2="177.13" y2="159.75"/><line class="cls-12" x1="95.11" y1="59.12" x2="177.55" y2="59.12"/><line class="cls-12" x1="95.11" y1="92.16" x2="177.55" y2="92.16"/><line class="cls-12" x1="95.11" y1="126.71" x2="177.55" y2="126.71"/><line class="cls-12" x1="95.11" y1="159.75" x2="177.55" y2="159.75"/><line class="cls-13" x1="96.9" y1="60.56" x2="179.34" y2="60.56"/><line class="cls-13" x1="96.9" y1="93.59" x2="179.34" y2="93.59"/><line class="cls-13" x1="96.9" y1="128.15" x2="179.34" y2="128.15"/><line class="cls-13" x1="96.9" y1="161.18" x2="179.34" y2="161.18"/></svg>