<svg id="Calque_8_-_copie_7" data-name="Calque 8 - copie 7" xmlns="http://www.w3.org/2000/svg" viewBox="0 0 233.84 233.84"><defs><style>.cls-1,.cls-3{fill:#fbcea2;}.cls-1,.cls-10,.cls-3,.cls-4,.cls-5,.cls-7,.cls-8{stroke:#1d1d1b;}.cls-1,.cls-3,.cls-4,.cls-5,.cls-7,.cls-8{stroke-miterlimit:10;}.cls-1,.cls-7{stroke-width:8px;}.cls-11,.cls-2{fill:#1d1d1b;}.cls-2{opacity:0.15;}.cls-10,.cls-3,.cls-4,.cls-5{stroke-linecap:round;}.cls-3{stroke-width:5px;}.cls-10,.cls-4,.cls-5,.cls-7,.cls-8{fill:none;}.cls-10,.cls-4,.cls-5,.cls-8{stroke-width:6px;}.cls-5{opacity:0.32;}.cls-6,.cls-9{fill:#fff;}.cls-6{opacity:0.23;}.cls-10{stroke-linejoin:bevel;}.cls-12{opacity:0.37;}</style></defs><path class="cls-1" d="M204.36,786.16H122.29a72.77,72.77,0,0,1-14.18-1.39A71.93,71.93,0,0,1,50.4,714.28V632.21a71.89,71.89,0,0,1,71.89-71.89h82.07a71.89,71.89,0,0,1,71.89,71.89v82.07A71.89,71.89,0,0,1,204.36,786.16Z" transform="translate(-46.4 -556.32)"/><path class="cls-2" d="M107.21,782.2c71.27,5.64,154.68-25.27,165.2-109,2.5-19.94,3.84,41,3.84,41l-5.05,26.5-13.45,21.64-17.42,14.11-24.45,8.71S35.94,776.55,107.21,782.2Z" transform="translate(-46.4 -556.32)"/><g id="Calque_9" data-name="Calque 9"><path class="cls-3" d="M67.55,673.24" transform="translate(-46.4 -556.32)"/><path class="cls-4" d="M97.06,649.83A71,71,0,1,1,96,693.19" transform="translate(-46.4 -556.32)"/><path class="cls-5" d="M98.84,651a70.73,70.73,0,1,1,1.59,51,69.68,69.68,0,0,1-2.7-7.59" transform="translate(-46.4 -556.32)"/><path class="cls-3" d="M65.2,637.32" transform="translate(-46.4 -556.32)"/><path class="cls-4" d="M104.23,711.33s22.72-23.94,59.42-23.94,59.79,23.94,59.79,23.94" transform="translate(-46.4 -556.32)"/></g><path class="cls-6" d="M55.85,645.31S49.45,623.1,72,619.9s112.57-81.55,201.41-7.36c5.07-10-4.7-17.15-4.7-17.15L236,566l-38.15-6.25H110l-21.6,9.73L66,590l-9.34,22.57" transform="translate(-46.4 -556.32)"/><path class="cls-7" d="M204.36,786.16H122.29a72.77,72.77,0,0,1-14.18-1.39A71.93,71.93,0,0,1,50.4,714.28V632.21a71.89,71.89,0,0,1,71.89-71.89h82.07a71.89,71.89,0,0,1,71.89,71.89v82.07A71.89,71.89,0,0,1,204.36,786.16Z" transform="translate(-46.4 -556.32)"/><circle class="cls-8" cx="117.43" cy="101.94" r="26.35"/><g id="Calque_28" data-name="Calque 28"><polyline class="cls-9" points="31.03 115.26 71.62 115.26 71.62 115.26"/><line class="cls-10" x1="31.03" y1="115.26" x2="71.62" y2="115.26"/><polygon class="cls-11" points="85.18 115.26 66.07 123.07 70.61 115.26 66.07 107.46 85.18 115.26"/><g class="cls-12"><polyline class="cls-9" points="32.16 116.92 72.75 116.92 72.75 116.92"/><line class="cls-10" x1="32.16" y1="116.92" x2="72.75" y2="116.92"/><polygon class="cls-11" points="86.31 116.92 67.2 124.73 71.74 116.92 67.2 109.12 86.31 116.92"/></g></g></svg>