<svg id="Calque_8" data-name="Calque 8" xmlns="http://www.w3.org/2000/svg" viewBox="0 0 233.89 234.1"><defs><style>.cls-1{fill:#fbcea2;}.cls-2{fill:none;stroke-width:8px;}.cls-2,.cls-3,.cls-4{stroke:#1d1d1b;stroke-miterlimit:10;}.cls-3,.cls-4,.cls-6,.cls-7{fill:#fff;}.cls-3,.cls-4{stroke-linecap:round;}.cls-3{stroke-width:10px;stroke-dasharray:12;}.cls-4{stroke-width:6px;}.cls-5{fill:#1d1d1b;opacity:0.17;}.cls-6{opacity:0.31;}.cls-7{opacity:0.4;}</style></defs><g id="Calque_1" data-name="Calque 1"><path class="cls-1" d="M466.66,245.44l41-.26a71.89,71.89,0,0,0,71.89-71.89v-12s-33,8.26-33.58-29.28,33.58-30.3,33.58-30.3V91.23a71.89,71.89,0,0,0-71.89-71.89h-41" transform="translate(-349.69 -15.34)"/><path class="cls-2" d="M466.66,245.44l41-.26a71.89,71.89,0,0,0,71.89-71.89v-12s-33,8.26-33.58-29.28,33.58-30.3,33.58-30.3V91.23a71.89,71.89,0,0,0-71.89-71.89h-41" transform="translate(-349.69 -15.34)"/><path class="cls-1" d="M466.61,245.44l-41-.26a71.88,71.88,0,0,1-71.88-71.89v-12s33,8.26,33.58-29.28-33.58-30.3-33.58-30.3V91.23a71.88,71.88,0,0,1,71.88-71.89h41" transform="translate(-349.69 -15.34)"/><path class="cls-2" d="M466.61,245.44l-41-.26a71.88,71.88,0,0,1-71.88-71.89v-12s33,8.26,33.58-29.28-33.58-30.3-33.58-30.3V91.23a71.88,71.88,0,0,1,71.88-71.89h41" transform="translate(-349.69 -15.34)"/><g id="Calque_17" data-name="Calque 17"><line class="cls-3" x1="60.46" y1="37.62" x2="174.4" y2="37.62"/><line class="cls-3" x1="60.46" y1="197.33" x2="174.4" y2="197.33"/><line class="cls-4" x1="75.79" y1="68.47" x2="98.38" y2="68.47"/><line class="cls-4" x1="75.79" y1="82.77" x2="144.31" y2="82.77"/><line class="cls-4" x1="75.79" y1="97.07" x2="144.31" y2="97.07"/><line class="cls-4" x1="75.79" y1="111.37" x2="144.31" y2="111.37"/><line class="cls-4" x1="75.79" y1="125.66" x2="144.31" y2="125.66"/><line class="cls-4" x1="75.79" y1="139.96" x2="144.31" y2="139.96"/><line class="cls-4" x1="121.72" y1="154.35" x2="144.31" y2="154.35"/></g></g><path class="cls-5" d="M422.75,245.18S360.2,217,365.38,165c.41-4-12.84.56-12.84.56l1.15,23.3,25,42.95Z" transform="translate(-349.69 -15.34)"/><path class="cls-6" d="M357.62,87.3c10.69-38.43,26-64.09,135-64.37,75.11-.93-71.76-3.85-71.76-3.85l-36,12.85S353.38,53.7,357.62,87.3Z" transform="translate(-349.69 -15.34)"/><path class="cls-2" d="M466.66,245.44l41-.26a71.89,71.89,0,0,0,71.89-71.89v-12s-33,8.26-33.58-29.28,33.58-30.3,33.58-30.3V91.23a71.89,71.89,0,0,0-71.89-71.89h-41" transform="translate(-349.69 -15.34)"/><path class="cls-2" d="M466.61,245.44l-41-.26a71.88,71.88,0,0,1-71.88-71.89v-12s33,8.26,33.58-29.28-33.58-30.3-33.58-30.3V91.23a71.88,71.88,0,0,1,71.88-71.89h41" transform="translate(-349.69 -15.34)"/><path class="cls-7" d="M536.89,74.13c-10.07,0-22.19-10.55-3.37-10.55S547,74.13,536.89,74.13Z" transform="translate(-349.69 -15.34)"/></svg>