<svg xmlns="http://www.w3.org/2000/svg" xmlns:xlink="http://www.w3.org/1999/xlink" width="62" height="61" viewBox="0 0 62 61">
  <defs>
    <filter id="Ellipse_10" x="1" y="0" width="61" height="61" filterUnits="userSpaceOnUse">
      <feOffset dx="5" dy="5" input="SourceAlpha"/>
      <feGaussianBlur stdDeviation="3" result="blur"/>
      <feFlood flood-opacity="0.161"/>
      <feComposite operator="in" in2="blur"/>
      <feComposite in="SourceGraphic"/>
    </filter>
    <filter id="Polygone_1" x="0" y="8" width="53" height="47" filterUnits="userSpaceOnUse">
      <feOffset dy="3" input="SourceAlpha"/>
      <feGaussianBlur stdDeviation="3" result="blur-2"/>
      <feFlood flood-opacity="0.161"/>
      <feComposite operator="in" in2="blur-2"/>
      <feComposite in="SourceGraphic"/>
    </filter>
  </defs>
  <g id="Composant_20_1" data-name="Composant 20 – 1" transform="translate(5 4)">
    <g transform="matrix(1, 0, 0, 1, -5, -4)" filter="url(#Ellipse_10)">
      <circle id="Ellipse_10-2" data-name="Ellipse 10" cx="21.5" cy="21.5" r="21.5" transform="translate(5 4)" fill="#fff"/>
    </g>
    <g id="Composant_14_4" data-name="Composant 14 – 4" transform="translate(4 10)">
      <g transform="matrix(1, 0, 0, 1, -9, -14)" filter="url(#Polygone_1)">
        <path id="Polygone_1-2" data-name="Polygone 1" d="M14.931,4.256a3,3,0,0,1,5.137,0L32.254,24.45A3,3,0,0,1,29.686,29H5.314a3,3,0,0,1-2.569-4.55Z" transform="translate(44 43) rotate(180)" fill="#fbd0a5"/>
      </g>
      <g id="Polygone_2" data-name="Polygone 2" transform="translate(28 24) rotate(180)" fill="none">
        <path d="M7.874,4.751a3,3,0,0,1,5.251,0l5.414,9.8A3,3,0,0,1,15.914,19H5.086A3,3,0,0,1,2.46,14.549Z" stroke="none"/>
        <path d="M 10.5 8.269824981689453 L 6.780689239501953 14.99999809265137 L 14.2193021774292 14.99999809265137 L 10.5 8.269824981689453 M 10.5 3.202369689941406 C 11.5275297164917 3.202369689941406 12.55506038665771 3.718683242797852 13.12572002410889 4.751308441162109 L 18.54019927978516 14.5489387512207 C 19.64517974853516 16.54841804504395 18.19895935058594 18.99999809265137 15.91448020935059 18.99999809265137 L 5.085519790649414 18.99999809265137 C 2.801029205322266 18.99999809265137 1.354820251464844 16.54841804504395 2.459789276123047 14.5489387512207 L 7.874279975891113 4.751308441162109 C 8.444939613342285 3.718683242797852 9.472470283508301 3.202369689941406 10.5 3.202369689941406 Z" stroke="none" fill="#009ab5"/>
      </g>
    </g>
  </g>
</svg>
