<svg id="Calque_8_-_copie_13" data-name="Calque 8 - copie 13" xmlns="http://www.w3.org/2000/svg" viewBox="0 0 233.84 233.84"><defs><style>.cls-1,.cls-3{fill:#fdc286;}.cls-1,.cls-10,.cls-3,.cls-4,.cls-5,.cls-7,.cls-8{stroke:#000;}.cls-1,.cls-3,.cls-4,.cls-5,.cls-7,.cls-8{stroke-miterlimit:10;}.cls-1,.cls-7{stroke-width:8px;}.cls-2{opacity:0.15;}.cls-10,.cls-3,.cls-4,.cls-5{stroke-linecap:round;}.cls-3{stroke-width:5px;}.cls-10,.cls-4,.cls-5,.cls-7,.cls-8{fill:none;}.cls-10,.cls-4,.cls-5,.cls-8{stroke-width:6px;}.cls-5{opacity:0.32;}.cls-6,.cls-9{fill:#fff;}.cls-6{opacity:0.23;}.cls-10{stroke-linejoin:bevel;}.cls-11{opacity:0.37;}</style></defs><path class="cls-1" d="M509.28,790H427.21A72.85,72.85,0,0,1,413,788.61a71.92,71.92,0,0,1-57.7-70.49V636.05a71.89,71.89,0,0,1,71.88-71.89h82.07a71.89,71.89,0,0,1,71.89,71.89v82.07A71.89,71.89,0,0,1,509.28,790Z" transform="translate(-351.33 -560.16)"/><path class="cls-2" d="M412.13,786c71.27,5.65,154.68-25.27,165.2-109,2.51-19.94,3.84,41,3.84,41l-5,26.5-13.45,21.64-17.42,14.11-24.45,8.71S340.86,780.39,412.13,786Z" transform="translate(-351.33 -560.16)"/><g id="Calque_9_-_copie_2" data-name="Calque 9 - copie 2"><path class="cls-3" d="M372.47,677.08" transform="translate(-351.33 -560.16)"/><path class="cls-4" d="M402,653.67A70.71,70.71,0,1,1,400.87,697" transform="translate(-351.33 -560.16)"/><path class="cls-5" d="M403.77,654.87a70.73,70.73,0,1,1,1.59,51,69.73,69.73,0,0,1-2.71-7.59" transform="translate(-351.33 -560.16)"/><path class="cls-3" d="M370.12,641.17" transform="translate(-351.33 -560.16)"/><path class="cls-4" d="M409.15,715.17s22.72-23.93,59.42-23.93,59.8,23.93,59.8,23.93" transform="translate(-351.33 -560.16)"/></g><path class="cls-6" d="M356.16,649.15s-6.4-22.21,16.19-25.41,112.57-81.55,201.41-7.36c5.07-10-4.7-17.15-4.7-17.15L536.3,569.79l-38.15-6.25H410.34l-21.59,9.73-22.5,20.54-9.33,22.57" transform="translate(-351.33 -560.16)"/><path class="cls-7" d="M509.28,790H427.21A72.85,72.85,0,0,1,413,788.61a71.92,71.92,0,0,1-57.7-70.49V636.05a71.89,71.89,0,0,1,71.88-71.89h82.07a71.89,71.89,0,0,1,71.89,71.89v82.07A71.89,71.89,0,0,1,509.28,790Z" transform="translate(-351.33 -560.16)"/><circle class="cls-8" cx="117.43" cy="101.94" r="26.35"/><g id="Calque_28_-_copie_3" data-name="Calque 28 - copie 3"><polyline class="cls-9" points="72.75 116.92 32.16 116.92 32.16 116.92"/><line class="cls-10" x1="72.75" y1="116.92" x2="32.16" y2="116.92"/><polygon points="18.6 116.92 37.7 109.12 33.17 116.92 37.7 124.72 18.6 116.92"/><g class="cls-11"><polyline class="cls-9" points="73.88 118.58 33.29 118.58 33.29 118.58"/><line class="cls-10" x1="73.88" y1="118.58" x2="33.29" y2="118.58"/><polygon points="19.73 118.58 38.83 110.78 34.3 118.58 38.83 126.39 19.73 118.58"/></g></g></svg>