<svg id="Calque_8_-_copie_5" data-name="Calque 8 - copie 5" xmlns="http://www.w3.org/2000/svg" viewBox="0 0 233.84 233.84"><defs><style>.cls-1{fill:#fbcea2;}.cls-1,.cls-5{stroke:#1d1d1b;stroke-miterlimit:10;stroke-width:8px;}.cls-2,.cls-4{opacity:0.44;}.cls-3{fill:#1d1d1b;}.cls-4{fill:#fff;}.cls-5{fill:none;}</style></defs><path class="cls-1" d="M507.8,529.09H425.74a71.82,71.82,0,0,1-71.89-71.89V375.13a71.89,71.89,0,0,1,71.89-71.89H507.8a71.89,71.89,0,0,1,71.89,71.89V457.2A71.89,71.89,0,0,1,507.8,529.09Z" transform="translate(-349.85 -299.24)"/><g class="cls-2"><path d="M377.77,415.58c2.15-2.2,4.23-4.46,6.45-6.58,5.3-5.07,10.66-10.09,16-15.11,2.86-2.67,5.8-5.25,8.64-7.93,3.9-3.67,7.75-7.4,11.63-11.09,2.28-2.16,4.59-4.3,6.89-6.46,4.37-4.1,8.73-8.23,13.12-12.32,2.82-2.63,5.7-5.19,8.51-7.82,3.74-3.49,7.39-7.09,11.2-10.51,2.64-2.38,5.95-2.83,9.4-2.67,4.37.22,7.2,3.05,10.11,5.78,1.31,1.23,2.51,2.57,3.82,3.8,5.21,4.85,10.45,9.67,15.66,14.52,1.53,1.42,3,2.91,4.76,4.66,0-.89.11-1.48.11-2.08,0-6.89,0-13.78,0-20.67a17.49,17.49,0,0,1,.17-2.28c.31-2.31,1.38-3.42,3.66-3.44q10.6-.08,21.2,0c2.31,0,3.53,1.28,3.76,3.6.06.64,0,1.3,0,1.94q0,24,0,48.06a4.41,4.41,0,0,0,1.68,3.6c4.1,3.72,8,7.59,12.08,11.37,2.76,2.6,5.59,5.13,8.38,7.71a39.92,39.92,0,0,1,2.82,2.85c1.37,1.58,1.08,4.08-.52,6.13q-3.18,4.08-6.26,8.24a3.7,3.7,0,0,1-5.64.42c-2.59-2.59-5.25-5.11-7.91-7.63q-6.46-6.14-13-12.23c-2.73-2.55-5.52-5-8.23-7.6-3.9-3.67-7.74-7.39-11.62-11.08q-3.36-3.19-6.75-6.35c-4.91-4.57-9.83-9.12-14.72-13.71-4-3.79-8-7.62-12.05-11.41-.89-.84-1.88-1.58-3-2.5-2.22,2-4.44,4-6.61,6-1.36,1.26-2.62,2.64-4,3.9-4,3.7-8,7.36-11.94,11.06q-6.85,6.38-13.67,12.78l-13.1,12.34-13.5,12.69q-6.89,6.45-13.8,12.89a8.91,8.91,0,0,1-2.12,1.69,3.22,3.22,0,0,1-4-1.18c-2.1-2.81-4.24-5.59-6.33-8.4-.51-.69-.92-1.45-1.37-2.17Z" transform="translate(-349.85 -299.24)"/><path d="M482.56,497.2V448.89H454V497.2h-2c-13.36,0-26.73-.13-40.1.07-5.15.07-8.32-3.8-8.32-8.39q0-29.86,0-59.72c0-2.23,1.73-3,2.88-4.08,5.14-4.93,10.47-9.64,15.71-14.46,4.5-4.14,9-8.33,13.44-12.49l10.25-9.51c4.57-4.24,9.16-8.47,13.7-12.73q3.75-3.52,7.38-7.16c1-1,1.77-.92,2.77,0,3,3,6.18,5.82,9.27,8.73,5,4.71,10,9.43,15,14.12,2.6,2.43,5.27,4.79,7.87,7.22,4.13,3.85,8.23,7.73,12.36,11.58,2.43,2.27,4.89,4.51,7.33,6.76,3.6,3.33,7.21,6.63,10.77,10a2.59,2.59,0,0,1,.63,1.69q0,30.21,0,60.43a7.79,7.79,0,0,1-8,7.94c-13.55-.15-27.09-.05-40.64-.05Z" transform="translate(-349.85 -299.24)"/></g><path class="cls-3" d="M474.79,509.14" transform="translate(-349.85 -299.24)"/><path class="cls-4" d="M355.83,425.37s1.69-57.11,51.77-79.32,158.3-8.77,158.3-8.77c-3.62-9-36.44-30.71-36.44-30.71l-123.21-.65L366,335.06l-12.19,27.82Z" transform="translate(-349.85 -299.24)"/><path d="M374.31,412c2.15-2.2,4.24-4.46,6.46-6.58q8-7.6,16-15.11c2.85-2.67,5.79-5.25,8.64-7.93,3.9-3.67,7.74-7.4,11.62-11.09,2.29-2.16,4.6-4.3,6.89-6.46,4.38-4.1,8.74-8.23,13.13-12.32,2.82-2.63,5.69-5.19,8.51-7.82,3.74-3.49,7.38-7.09,11.19-10.51,2.65-2.38,5.95-2.83,9.4-2.67,4.38.22,7.21,3.05,10.12,5.78,1.31,1.23,2.51,2.57,3.82,3.8,5.21,4.85,10.45,9.67,15.66,14.52,1.52,1.42,3,2.91,4.76,4.66.05-.89.11-1.48.11-2.08,0-6.89,0-13.78,0-20.67a17.47,17.47,0,0,1,.16-2.28c.31-2.31,1.39-3.42,3.67-3.43q10.59-.09,21.19,0c2.32,0,3.54,1.28,3.76,3.6a18,18,0,0,1,0,1.94c0,16,0,32,0,48.06a4.41,4.41,0,0,0,1.69,3.6c4.09,3.72,8,7.59,12.07,11.37,2.77,2.6,5.6,5.13,8.38,7.71a38,38,0,0,1,2.83,2.85c1.37,1.58,1.08,4.08-.52,6.13q-3.2,4.08-6.27,8.24a3.7,3.7,0,0,1-5.64.42c-2.58-2.59-5.25-5.11-7.9-7.63q-6.47-6.13-13-12.23c-2.72-2.55-5.51-5-8.23-7.59-3.89-3.68-7.73-7.4-11.61-11.09q-3.36-3.19-6.76-6.35c-4.9-4.57-9.83-9.12-14.72-13.71-4-3.78-8-7.62-12-11.41-.89-.84-1.88-1.58-3-2.5-2.23,2-4.44,4-6.61,6-1.36,1.26-2.62,2.64-4,3.9-4,3.7-8,7.36-11.94,11.06q-6.84,6.38-13.66,12.78l-13.1,12.34L402,412q-6.88,6.45-13.8,12.89a9,9,0,0,1-2.13,1.69,3.21,3.21,0,0,1-4-1.18c-2.1-2.81-4.24-5.59-6.34-8.4-.51-.69-.91-1.45-1.37-2.17Z" transform="translate(-349.85 -299.24)"/><path d="M479.1,493.62V445.31H450.5v48.31h-2c-13.37,0-26.74-.13-40.1.07-5.15.07-8.33-3.8-8.32-8.39,0-19.9,0-39.81,0-59.72,0-2.23,1.74-3,2.88-4.08,5.14-4.93,10.48-9.64,15.72-14.46,4.5-4.14,9-8.33,13.44-12.49L442.36,385q6.86-6.36,13.7-12.73,3.75-3.53,7.37-7.16c1-1,1.78-.92,2.77.05,3.06,2.95,6.19,5.82,9.28,8.73q7.5,7.06,15,14.12c2.6,2.43,5.27,4.79,7.87,7.22,4.13,3.85,8.23,7.73,12.35,11.58,2.43,2.27,4.89,4.51,7.34,6.76,3.59,3.33,7.21,6.63,10.76,10a2.54,2.54,0,0,1,.63,1.69q0,30.21,0,60.43a7.78,7.78,0,0,1-8,7.94c-13.54-.15-27.09-.05-40.63-.05Z" transform="translate(-349.85 -299.24)"/><path class="cls-5" d="M507.8,529.09H425.74a71.82,71.82,0,0,1-71.89-71.89V375.13a71.89,71.89,0,0,1,71.89-71.89H507.8a71.89,71.89,0,0,1,71.89,71.89V457.2A71.89,71.89,0,0,1,507.8,529.09Z" transform="translate(-349.85 -299.24)"/></svg>