<svg id="Calque_8_-_copie_11" data-name="Calque 8 - copie 11" xmlns="http://www.w3.org/2000/svg" viewBox="0 0 233.84 233.84"><defs><style>.cls-1{fill:#fdc286;}.cls-1,.cls-4{stroke:#000;stroke-miterlimit:10;stroke-width:8px;}.cls-2{opacity:0.15;}.cls-3{fill:#fff;opacity:0.23;}.cls-4{fill:none;}.cls-5{opacity:0.42;}</style></defs><path class="cls-1" d="M490.56,788.36H408.49a71.82,71.82,0,0,1-71.89-71.89V634.41a71.89,71.89,0,0,1,71.89-71.89h82.07a71.88,71.88,0,0,1,71.88,71.89v82.06A71.88,71.88,0,0,1,490.56,788.36Z" transform="translate(-332.6 -558.52)"/><path class="cls-2" d="M393.41,784.4c71.27,5.64,154.68-25.27,165.19-109,2.51-20,3.84,41,3.84,41l-5,26.51L544,764.61l-17.43,14.12-24.44,8.71S322.14,778.75,393.41,784.4Z" transform="translate(-332.6 -558.52)"/><path class="cls-3" d="M342.05,647.51s-6.4-22.21,16.19-25.41,112.56-81.55,201.41-7.36c5.07-10-4.7-17.16-4.7-17.16l-32.77-29.43L484,561.9H396.23l-21.59,9.73-22.5,20.54-9.34,22.57" transform="translate(-332.6 -558.52)"/><g id="Calque_38_-_copie_2" data-name="Calque 38 - copie 2"><path d="M450.67,591.23c.76.93,1.84,1.74,2.2,2.8a3.06,3.06,0,0,1-2.22,3.66,3.31,3.31,0,0,1-3.88-1.64,3.25,3.25,0,0,1,1-4.2c.3-.23.63-.41.95-.62Z" transform="translate(-332.6 -558.52)"/><path d="M489.74,668.71c4.16,0,8.1,0,12,0,2.51,0,3.64,1.21,3.74,3.71.38,9.68-.82,19.1-5,27.93q-11.44,24.07-37.23,31l-1.76.46v1.71q0,10.92,0,21.83c0,2.74-1.15,3.9-3.86,3.91H441.72c-2.71,0-3.85-1.17-3.85-3.92v-23c-4.91-2-9.81-3.47-14.21-5.86-16.32-8.82-26.14-22.51-29.07-40.87-.71-4.49-.55-9.14-.69-13.72a3.09,3.09,0,0,1,3.38-3.21c4,0,8.08,0,12.36,0V666.9c0-12.1-.29-24.19.07-36.27.49-16.73,8.69-28.67,23.69-36a3.32,3.32,0,0,1,4.75,1.41c.85,1.76.11,3.57-1.89,4.59-.34.17-.7.29-1,.46A33.12,33.12,0,0,0,418,620.62c-.07.2-.1.4-.2.82,3.64,0,7.17,0,10.7,0,2.68,0,4.33,2.91,2.74,5a4.46,4.46,0,0,1-3,1.52c-3.87.17-7.75.07-11.84.07v9.2h11.36a6.54,6.54,0,0,1,1.93.22,3.26,3.26,0,0,1-1,6.32c-3.5,0-7,0-10.5,0H416.3V653c4.09,0,8.12,0,12.15,0a3.14,3.14,0,0,1,3.25,2.46,3,3,0,0,1-1.39,3.53,4.67,4.67,0,0,1-2.32.54c-3.87,0-7.75,0-11.7,0v9.07h66.77v-9.07H471.61a6.67,6.67,0,0,1-1.79-.14,3.36,3.36,0,0,1-2.29-3.42,3.27,3.27,0,0,1,3.16-3c3.5-.05,7,0,10.51,0h1.87v-9.19c-4.08,0-8.11,0-12.15,0a3.18,3.18,0,0,1-3.29-2.61,3.05,3.05,0,0,1,1.55-3.48,4.06,4.06,0,0,1,2-.44c3.39-.05,6.78,0,10.18,0H483V628c-4.17,0-8.15,0-12.14,0a3.27,3.27,0,0,1-1.47-6.2,5,5,0,0,1,1.9-.34c3.38,0,6.77,0,10.33,0a32.11,32.11,0,0,0-6.33-11.69,33.18,33.18,0,0,0-12.1-9.07c-1.84-.81-2.65-2.06-2.46-3.64.3-2.43,2.61-3.57,5.11-2.46a40,40,0,0,1,23.91,36.54q0,17.8,0,35.62Zm-73.6,6.63c.07,13.94,5.57,24.78,17.82,31.31s24.54,5.51,35.76-2.74c9.51-7,13.62-16.8,13.45-28.57Zm21.73,49.53c0-2.58-.07-5,0-7.49a2.11,2.11,0,0,0-1.68-2.43c-14.17-5.49-23-15.64-25.92-30.61-.57-2.92-.62-5.93-.92-9h-8.82C399.45,698.86,415.81,719.91,437.87,724.87Zm23.64,0c22.93-4.91,38.66-27.42,37.24-49.45h-9c0,.81,0,1.52,0,2.22a36.18,36.18,0,0,1-2.22,12.83,39.84,39.84,0,0,1-24.59,24.66c-.53.2-1.34.69-1.36,1.07C461.46,719,461.51,721.92,461.51,724.83Zm-6.67,27.85V717.16H444.52v35.52Z" transform="translate(-332.6 -558.52)"/></g><path class="cls-4" d="M490.56,788.36H408.49a71.82,71.82,0,0,1-71.89-71.89V634.41a71.89,71.89,0,0,1,71.89-71.89h82.07a71.88,71.88,0,0,1,71.88,71.89v82.06A71.88,71.88,0,0,1,490.56,788.36Z" transform="translate(-332.6 -558.52)"/><g id="Calque_38_-_copie" data-name="Calque 38 - copie"><g class="cls-5"><path d="M453.88,593.54c.76.92,1.85,1.74,2.2,2.8a3.06,3.06,0,0,1-2.21,3.66,3.34,3.34,0,0,1-3.89-1.64,3.27,3.27,0,0,1,1-4.21c.3-.22.63-.41,1-.61Z" transform="translate(-332.6 -558.52)"/><path d="M493,671h12c2.51,0,3.64,1.21,3.74,3.72.39,9.68-.82,19.1-5,27.93q-11.44,24.08-37.22,31.05l-1.76.46v1.71q0,10.92,0,21.83c0,2.74-1.15,3.9-3.86,3.91H444.93c-2.71,0-3.85-1.17-3.85-3.92v-23c-4.91-2-9.8-3.47-14.21-5.86C410.55,720,400.73,706.32,397.81,688c-.72-4.5-.56-9.14-.69-13.72a3.07,3.07,0,0,1,3.37-3.21c4,0,8.08,0,12.36,0V669.2c0-12.09-.29-24.19.07-36.27.49-16.72,8.69-28.67,23.69-36a3.33,3.33,0,0,1,4.75,1.42c.86,1.76.11,3.57-1.88,4.58-.34.18-.71.3-1.05.47a33.15,33.15,0,0,0-17.21,19.5c-.07.19-.1.4-.2.82,3.65,0,7.18,0,10.7,0,2.69,0,4.33,2.91,2.75,5a4.49,4.49,0,0,1-3,1.52c-3.88.17-7.76.07-11.85.07v9.19c3.74,0,7.55,0,11.36,0a6.54,6.54,0,0,1,1.93.22,3.26,3.26,0,0,1-1,6.32c-3.5,0-7,0-10.51,0h-1.87v9.19c4.09,0,8.12,0,12.16,0a3.14,3.14,0,0,1,3.24,2.46,3,3,0,0,1-1.39,3.53,4.67,4.67,0,0,1-2.32.54c-3.87.05-7.74,0-11.7,0v9.07h66.78v-9.07H474.82a6.29,6.29,0,0,1-1.79-.15,3.34,3.34,0,0,1-2.29-3.41,3.26,3.26,0,0,1,3.16-3c3.5,0,7,0,10.51,0h1.87v-9.2c-4.08,0-8.11,0-12.14,0a3.18,3.18,0,0,1-3.3-2.61,3,3,0,0,1,1.55-3.48,4.23,4.23,0,0,1,2-.45c3.39,0,6.79,0,10.18,0h1.6v-9.19c-4.16,0-8.15,0-12.13,0a3.27,3.27,0,0,1-1.48-6.2,5.08,5.08,0,0,1,1.9-.34c3.39,0,6.77,0,10.33,0a31.89,31.89,0,0,0-6.33-11.69,33.18,33.18,0,0,0-12.1-9.07c-1.84-.82-2.64-2.06-2.45-3.64.29-2.43,2.6-3.57,5.1-2.46A40,40,0,0,1,493,633.43q0,17.8,0,35.61Zm-73.6,6.63c.07,13.94,5.57,24.78,17.82,31.31s24.55,5.51,35.77-2.74c9.5-7,13.61-16.8,13.44-28.57Zm21.73,49.53c0-2.58-.07-5,0-7.49a2.1,2.1,0,0,0-1.67-2.43c-14.18-5.49-23-15.64-25.93-30.62-.57-2.91-.62-5.93-.92-9h-8.82C402.67,701.17,419,722.22,441.08,727.18Zm23.64,0c22.93-4.91,38.66-27.42,37.24-49.45h-9c0,.81,0,1.51,0,2.22a36,36,0,0,1-2.22,12.83,39.84,39.84,0,0,1-24.59,24.66c-.53.2-1.34.69-1.36,1.07C464.67,721.35,464.72,724.23,464.72,727.14ZM458.05,755V719.46H447.73V755Z" transform="translate(-332.6 -558.52)"/></g></g></svg>