<svg id="Calque_8_-_copie" data-name="Calque 8 - copie" xmlns="http://www.w3.org/2000/svg" viewBox="0 0 233.84 233.84"><defs><style>.cls-1{fill:#fbcea2;}.cls-1,.cls-9{stroke:#1d1d1b;stroke-miterlimit:10;stroke-width:8px;}.cls-2,.cls-4{fill:#fff;}.cls-2{opacity:0.33;}.cls-3{fill:#fffefa;opacity:0.42;}.cls-4{opacity:0.68;}.cls-5,.cls-6,.cls-8{fill:#1d1d1b;}.cls-5{opacity:0.12;}.cls-6{opacity:0.09;}.cls-7{opacity:0.54;}.cls-9{fill:none;}</style></defs><g id="Calque_4_-_copie" data-name="Calque 4 - copie"><rect class="cls-1" x="4" y="4" width="225.84" height="225.84" rx="71.89"/></g><g id="Calque_5_-_copie" data-name="Calque 5 - copie"><path class="cls-2" d="M110.23,23.13l-14.54.92L76.12,35.63s-6.32,101.84,93.35,93.08C86.74,105.56,110.23,23.13,110.23,23.13Z" transform="translate(-46.12 -15.08)"/><path class="cls-3" d="M77.28,56.24S79.49,73.5,86.06,87c7.72,15.83,12.28,20.49,4.35.87-18.78-46.45,8.5-65,8.5-65L76.76,33.09Z" transform="translate(-46.12 -15.08)"/><path class="cls-4" d="M50.12,125.33c3.17-48,19.58-73.79,28.62-46.5C87,101.14,76,38.25,76,38.25L59,56.31,48.9,93.42l1.22,31.91" transform="translate(-46.12 -15.08)"/></g><g id="Calque_2_-_copie" data-name="Calque 2 - copie"><path class="cls-5" d="M83.91,91.16c10.09,24.09,44.72,59.17,91.29,59.17,93.15,0,93.15-90.55,93.15-90.55L256.19,45.89s-5.5,76.36-68.49,83.69c-14.67,1.71-38.39.81-50.42-2C97.67,118.35,83.91,91.16,83.91,91.16Z" transform="translate(-46.12 -15.08)"/><path class="cls-6" d="M50.12,125.33C74,226.5,151.68,234.88,262.15,215.4c-18.43,36.42-96,29.52-96,29.52H110L74,226.5,50.12,188.2V125.33" transform="translate(-46.12 -15.08)"/></g><g id="Calque_7_-_copie" data-name="Calque 7 - copie"><g class="cls-7"><rect class="cls-8" x="224.81" y="167.15" width="9.04" height="59.58" rx="3.68" transform="translate(380.15 -47.46) rotate(90)"/><rect class="cls-8" x="177.98" y="152.08" width="9.04" height="59.58" rx="3.68"/></g></g><g id="Calque_6_-_copie" data-name="Calque 6 - copie"><rect class="cls-8" x="176.15" y="150.52" width="9.04" height="59.58" rx="3.68"/><rect class="cls-8" x="222.97" y="165.6" width="9.04" height="59.58" rx="3.68" transform="translate(376.76 -47.18) rotate(90)"/></g><g id="Calque_1_-_copie" data-name="Calque 1 - copie"><rect class="cls-9" x="4" y="4" width="225.84" height="225.84" rx="71.89"/><path class="cls-9" d="M76.12,35.63S69.89,132,163,132s93.15-90.55,93.15-90.55" transform="translate(-46.12 -15.08)"/></g></svg>