<svg id="Calque_8_-_copie_10" data-name="Calque 8 - copie 10" xmlns="http://www.w3.org/2000/svg" viewBox="0 0 233.84 233.84"><defs><style>.cls-1{fill:#fdc286;}.cls-1,.cls-4,.cls-5{stroke:#000;}.cls-1,.cls-4{stroke-miterlimit:10;stroke-width:8px;}.cls-2{opacity:0.15;}.cls-3{fill:#fff;opacity:0.23;}.cls-4,.cls-5{fill:none;}.cls-5{stroke-linecap:round;stroke-linejoin:round;stroke-width:6px;}.cls-6{opacity:0.44;}</style></defs><path class="cls-1" d="M194.09,783.28H112a71.82,71.82,0,0,1-71.89-71.89V629.32A71.89,71.89,0,0,1,112,557.44h82.07A71.88,71.88,0,0,1,266,629.32v82.07A71.89,71.89,0,0,1,194.09,783.28Z" transform="translate(-36.13 -553.44)"/><path class="cls-2" d="M96.94,779.31c71.27,5.65,154.68-25.26,165.19-108.95,2.51-20,3.84,41,3.84,41l-5,26.51-13.45,21.63-17.43,14.12-24.44,8.71S25.67,773.67,96.94,779.31Z" transform="translate(-36.13 -553.44)"/><path class="cls-3" d="M45.58,642.43S39.18,620.22,61.77,617s112.56-81.55,201.41-7.37c5.07-10-4.7-17.15-4.7-17.15l-32.77-29.43-38.14-6.25H99.76l-21.59,9.73-22.5,20.54-9.34,22.56" transform="translate(-36.13 -553.44)"/><path class="cls-4" d="M194.09,783.28H112a71.82,71.82,0,0,1-71.89-71.89V629.32A71.89,71.89,0,0,1,112,557.44h82.07A71.88,71.88,0,0,1,266,629.32v82.07A71.89,71.89,0,0,1,194.09,783.28Z" transform="translate(-36.13 -553.44)"/><g id="Calque_38" data-name="Calque 38"><g id="Calque_36" data-name="Calque 36"><circle class="cls-5" cx="93.36" cy="175.23" r="7.02"/><circle class="cls-5" cx="151.17" cy="175.23" r="7.02"/><line class="cls-5" x1="121.67" y1="133.66" x2="121.67" y2="79.3"/><line class="cls-5" x1="93.36" y1="79.3" x2="99.72" y2="134.18"/><line class="cls-5" x1="71.91" y1="105.14" x2="172.19" y2="105.14"/><polyline class="cls-5" points="37.04 57.42 59.06 57.42 63.72 75.88 84.33 157.52 161.27 157.38"/><polygon class="cls-5" points="179.06 77.61 64.28 78.11 78.44 134.18 164.94 134.18 179.06 77.61"/><line class="cls-5" x1="144.15" y1="134.18" x2="150.76" y2="79.3"/></g><g id="Calque_36_-_copie" data-name="Calque 36 - copie" class="cls-6"><circle class="cls-5" cx="95.38" cy="178.12" r="7.02"/><circle class="cls-5" cx="153.18" cy="178.12" r="7.02"/><line class="cls-5" x1="123.69" y1="136.55" x2="123.69" y2="82.19"/><line class="cls-5" x1="95.38" y1="82.19" x2="101.73" y2="137.07"/><line class="cls-5" x1="73.92" y1="108.04" x2="174.2" y2="108.04"/><polyline class="cls-5" points="39.05 60.32 61.07 60.32 65.73 78.78 86.34 160.41 163.29 160.27"/><polygon class="cls-5" points="181.07 80.51 66.3 81 80.45 137.07 166.96 137.07 181.07 80.51"/><line class="cls-5" x1="146.16" y1="137.07" x2="152.78" y2="82.19"/></g></g></svg>