<svg id="Calque_8_-_copie_4" data-name="Calque 8 - copie 4" xmlns="http://www.w3.org/2000/svg" viewBox="0 0 233.84 233.84"><defs><style>.cls-1{fill:#fbcea2;}.cls-1,.cls-12,.cls-13,.cls-15,.cls-2,.cls-3,.cls-4,.cls-5,.cls-6,.cls-7,.cls-8,.cls-9{stroke:#1d1d1b;}.cls-1,.cls-12,.cls-13,.cls-15,.cls-2,.cls-3,.cls-4,.cls-5,.cls-6{stroke-miterlimit:10;}.cls-1,.cls-15{stroke-width:8px;}.cls-14,.cls-2,.cls-4{fill:#1d1d1b;}.cls-12,.cls-2{stroke-width:5px;}.cls-2{opacity:0.26;}.cls-13,.cls-15,.cls-3,.cls-5,.cls-6,.cls-9{fill:none;}.cls-3,.cls-5,.cls-7,.cls-8{stroke-width:4px;}.cls-4{stroke-width:2px;}.cls-5{opacity:0.52;}.cls-7,.cls-8{fill:#fab436;}.cls-7,.cls-8,.cls-9{stroke-linecap:round;stroke-linejoin:round;}.cls-8{opacity:0.31;}.cls-10,.cls-11{fill:#fff;}.cls-10{opacity:0.16;}.cls-11{opacity:0.23;}.cls-12{fill:#f5a992;}.cls-13{stroke-width:6.65px;}.cls-14{opacity:0.48;}</style></defs><g id="Calque_4_-_copie_4" data-name="Calque 4 - copie 4"><rect class="cls-1" x="4" y="4" width="225.84" height="225.84" rx="71.89"/></g><path class="cls-2" d="M178,408.29H108.87A17.87,17.87,0,0,1,91,390.43V356.79a17.86,17.86,0,0,1,17.87-17.86H178a17.86,17.86,0,0,1,17.87,17.86v33.64A17.87,17.87,0,0,1,178,408.29Z" transform="translate(-46.73 -299.24)"/><circle class="cls-3" cx="77.94" cy="127.3" r="0.94"/><circle class="cls-3" cx="85.04" cy="127.3" r="0.94"/><circle class="cls-3" cx="92.27" cy="127.3" r="0.94"/><circle class="cls-3" cx="77.94" cy="127.3" r="0.94"/><circle class="cls-3" cx="85.04" cy="127.3" r="0.94"/><circle class="cls-3" cx="92.27" cy="127.3" r="0.94"/><circle class="cls-3" cx="77.94" cy="159.05" r="0.94"/><circle class="cls-3" cx="85.04" cy="159.05" r="0.94"/><circle class="cls-3" cx="92.27" cy="159.05" r="0.94"/><circle class="cls-4" cx="60.41" cy="194.08" r="0.94"/><circle class="cls-4" cx="65.92" cy="194.08" r="0.94"/><circle class="cls-4" cx="71.5" cy="194.08" r="0.94"/><circle class="cls-3" cx="55.93" cy="159.05" r="11.65"/><path class="cls-5" d="M93.61,427.94s-4.78-4.77,0-9.53A4.72,4.72,0,0,1,98.68,417a10.39,10.39,0,0,1,4.45,3.6s4.78-7,9.54-2.17,0,9.53,0,9.53l-9.53,9.53Z" transform="translate(-46.73 -299.24)"/><path class="cls-3" d="M93.13,427.39s-4.78-4.77,0-9.53a4.69,4.69,0,0,1,5.07-1.42,10.39,10.39,0,0,1,4.45,3.6s4.79-7,9.54-2.18,0,9.54,0,9.54l-9.53,9.53Z" transform="translate(-46.73 -299.24)"/><circle class="cls-5" cx="78.42" cy="127.86" r="0.94"/><circle class="cls-5" cx="85.51" cy="127.86" r="0.94"/><circle class="cls-5" cx="92.75" cy="127.86" r="0.94"/><circle class="cls-5" cx="78.42" cy="159.6" r="0.94"/><circle class="cls-5" cx="85.51" cy="159.6" r="0.94"/><circle class="cls-5" cx="92.75" cy="159.6" r="0.94"/><circle class="cls-5" cx="56.41" cy="159.6" r="11.65"/><path class="cls-6" d="M93.05,462.27s3.11-3,6.12-3h7.34c3.49,0,6.59,3,6.59,3" transform="translate(-46.73 -299.24)"/><circle class="cls-6" cx="55.93" cy="156.33" r="3.66"/><line class="cls-7" x1="137.62" y1="132.22" x2="205.76" y2="132.22"/><line class="cls-7" x1="137.62" y1="142.6" x2="205.76" y2="142.6"/><line class="cls-7" x1="137.62" y1="121.84" x2="205.76" y2="121.84"/><line class="cls-7" x1="137.62" y1="152.64" x2="205.76" y2="152.64"/><line class="cls-7" x1="137.62" y1="163.02" x2="205.76" y2="163.02"/><line class="cls-8" x1="138.63" y1="133.09" x2="206.77" y2="133.09"/><line class="cls-8" x1="138.63" y1="143.47" x2="206.77" y2="143.47"/><line class="cls-8" x1="138.63" y1="122.71" x2="206.77" y2="122.71"/><line class="cls-8" x1="138.63" y1="153.51" x2="206.77" y2="153.51"/><line class="cls-8" x1="138.63" y1="163.89" x2="206.77" y2="163.89"/><rect class="cls-9" x="52.47" y="188.01" width="128.89" height="12.14" rx="6.07"/><path class="cls-10" d="M229.17,497.16c5.92-5.93,30.49-27.64,25.11-6.47S239.76,514,226.05,511.51,223.26,503.1,229.17,497.16Z" transform="translate(-46.73 -299.24)"/><path class="cls-11" d="M53.9,388.85s-6.4-22.21,16.19-25.41,112.56-81.55,201.41-7.36c5.07-10-4.7-17.15-4.7-17.15L234,309.49l-38.14-6.25H108.08L86.49,313,64,333.51l-9.34,22.57" transform="translate(-46.73 -299.24)"/><path class="cls-12" d="M173.51,402.87H104.35A17.86,17.86,0,0,1,86.49,385V351.38a17.87,17.87,0,0,1,17.86-17.87h69.16a17.87,17.87,0,0,1,17.86,17.87V385A17.86,17.86,0,0,1,173.51,402.87Z" transform="translate(-46.73 -299.24)"/><g id="Calque_21" data-name="Calque 21"><line class="cls-13" x1="84.16" y1="51.21" x2="84.16" y2="77.19"/><ellipse class="cls-13" cx="79.27" cy="77.19" rx="4.89" ry="2.82"/></g><g id="Calque_21_-_copie" data-name="Calque 21 - copie"><line class="cls-13" x1="103.36" y1="51.21" x2="103.36" y2="77.19"/><ellipse class="cls-13" cx="98.47" cy="77.19" rx="4.89" ry="2.82"/></g><path class="cls-14" d="M54.47,440.24c.75,26.54,13.93,91.86,121.6,88.85,55,0-72.94-.66-72.94-.66l-26.45-14L52.4,480.15S46.75,436.93,54.47,440.24Z" transform="translate(-46.73 -299.24)"/><rect class="cls-15" x="4" y="4" width="225.84" height="225.84" rx="71.89"/></svg>